# xmcd
#
# Track frame offsets:
#	150
#	19355
#	41827
#	64268
#	81321
#	111355
#	139066
#	159430
#	188349
#	213619
#
# Disc length: 3080 seconds
# Revision: 0
# Processed by: cddbd v1.5.2PL0 Copyright (c) Steve Scherf et al.
# Submitted via: dBpowerAMP V12.0
#
DISCID=8e0c060a
DTITLE=Garrick Davis - Glass Half Full
DYEAR=1900
DGENRE=Blues
TTITLE0=Everything
TTITLE1=Z.E.D.
TTITLE2=The Boy In Me
TTITLE3=Big Imagination
TTITLE4=Trust
TTITLE5=Wastin' Time
TTITLE6=Gut Feeling
TTITLE7=Chemical Reaction
TTITLE8=Breakin' Down
TTITLE9=Another Day
EXTD=
EXTT0=
EXTT1=
EXTT2=
EXTT3=
EXTT4=
EXTT5=
EXTT6=
EXTT7=
EXTT8=
EXTT9=
PLAYORDER=
